<svg id="Group_48" data-name="Group 48" xmlns="http://www.w3.org/2000/svg" width="169.58" height="169.58" viewBox="0 0 169.58 169.58">
  <path id="Path_13" data-name="Path 13" d="M84.79,0a84.79,84.79,0,1,0,84.79,84.79A84.788,84.788,0,0,0,84.79,0ZM57.65,133.45,24.54,36.13H52.51l33.11,97.33H57.65Zm87.39,0H121.37V125.5a12.487,12.487,0,0,0-12.49-12.49H88.16V89.35h22.9a33.976,33.976,0,0,1,33.98,33.98v10.12ZM121.36,80.23V72.28a12.487,12.487,0,0,0-12.49-12.49H88.16V36.13h22.9a33.976,33.976,0,0,1,33.98,33.98V80.23Z" fill="#fff"/>
</svg>
